<?xml version="1.0" standalone="no"?>
<!DOCTYPE svg PUBLIC "-//W3C//DTD SVG 20010904//EN"
 "http://www.w3.org/TR/2001/REC-SVG-20010904/DTD/svg10.dtd">
<svg version="1.0" xmlns="http://www.w3.org/2000/svg"
 width="700.000000pt" height="700.000000pt" viewBox="0 0 700.000000 700.000000"
 preserveAspectRatio="xMidYMid meet">
<metadata>
Created by potrace 1.14, written by Peter Selinger 2001-2017
</metadata>
<g transform="translate(0.000000,700.000000) scale(0.100000,-0.100000)"
fill="#000000" stroke="none">
<path d="M1838 6320 l-26 -5 0 -502 c-1 -277 -1 -529 -1 -560 l-1 -58 -444 1
-444 1 0 -528 0 -529 444 0 444 0 1 -27 c0 -16 1 -275 2 -578 l2 -549 555 -1
c305 -1 560 1 567 3 9 3 12 131 12 525 0 287 0 546 1 575 l0 52 494 0 c475 0
494 -1 499 -19 8 -31 5 -441 -3 -506 -5 -33 -11 -85 -14 -115 -10 -94 -45
-279 -66 -345 -46 -145 -63 -192 -97 -270 -109 -251 -260 -439 -484 -603 -74
-53 -226 -155 -273 -181 -20 -12 -53 -30 -73 -42 -270 -153 -689 -310 -923
-345 -19 -3 -53 -10 -75 -15 -22 -4 -55 -9 -72 -9 -18 0 -33 -4 -33 -8 0 -4
35 -44 78 -89 42 -44 138 -145 212 -223 74 -79 158 -167 185 -195 28 -29 118
-124 200 -211 83 -87 180 -190 216 -227 l65 -69 40 19 c105 51 356 195 658
378 198 120 670 457 768 547 7 7 47 42 88 78 186 160 385 370 463 488 97 147
182 364 246 623 16 68 32 138 35 154 12 61 26 141 31 173 3 17 7 44 10 60 28
172 35 287 38 673 l3 274 434 3 c239 1 440 4 446 6 7 3 10 170 10 527 l-1 524
-450 2 c-247 1 -457 2 -467 2 -15 1 -16 45 -16 549 -1 301 -1 552 -1 557 -1
12 -1170 17 -1172 6 -1 -3 -2 -252 -3 -553 -1 -301 -5 -551 -9 -554 -8 -8
-971 -9 -984 -1 -4 3 -8 254 -8 557 0 449 -2 553 -13 558 -17 6 -1060 9 -1094
2z"/>
</g>
</svg>
